<svg aria-roledescription="er" role="graphics-document document" viewBox="0 0 540 556" style="max-width: 540px; background-color: white;" xmlns:xlink="http://www.w3.org/1999/xlink" xmlns="http://www.w3.org/2000/svg" width="100%" id="my-svg"><style>#my-svg{font-family:"trebuchet ms",verdana,arial,sans-serif;font-size:16px;fill:#000000;}#my-svg .error-icon{fill:#552222;}#my-svg .error-text{fill:#552222;stroke:#552222;}#my-svg .edge-thickness-normal{stroke-width:2px;}#my-svg .edge-thickness-thick{stroke-width:3.5px;}#my-svg .edge-pattern-solid{stroke-dasharray:0;}#my-svg .edge-pattern-dashed{stroke-dasharray:3;}#my-svg .edge-pattern-dotted{stroke-dasharray:2;}#my-svg .marker{fill:#000000;stroke:#000000;}#my-svg .marker.cross{stroke:#000000;}#my-svg svg{font-family:"trebuchet ms",verdana,arial,sans-serif;font-size:16px;}#my-svg .entityBox{fill:#cde498;stroke:#13540c;}#my-svg .attributeBoxOdd{fill:#ffffff;stroke:#13540c;}#my-svg .attributeBoxEven{fill:#f2f2f2;stroke:#13540c;}#my-svg .relationshipLabelBox{fill:hsl(78.1578947368, 58.4615384615%, 84.5098039216%);opacity:0.7;background-color:hsl(78.1578947368, 58.4615384615%, 84.5098039216%);}#my-svg .relationshipLabelBox rect{opacity:0.5;}#my-svg .relationshipLine{stroke:#000000;}#my-svg .entityTitleText{text-anchor:middle;font-size:18px;fill:#000000;}#my-svg #MD_PARENT_START{fill:#f5f5f5!important;stroke:#000000!important;stroke-width:1;}#my-svg #MD_PARENT_END{fill:#f5f5f5!important;stroke:#000000!important;stroke-width:1;}#my-svg :root{--mermaid-font-family:"trebuchet ms",verdana,arial,sans-serif;}</style><g/><defs><marker orient="auto" markerHeight="240" markerWidth="190" refY="7" refX="0" id="MD_PARENT_START"><path d="M 18,7 L9,13 L1,7 L9,1 Z"/></marker></defs><defs><marker orient="auto" markerHeight="28" markerWidth="20" refY="7" refX="19" id="MD_PARENT_END"><path d="M 18,7 L9,13 L1,7 L9,1 Z"/></marker></defs><defs><marker orient="auto" markerHeight="18" markerWidth="18" refY="9" refX="0" id="ONLY_ONE_START"><path d="M9,0 L9,18 M15,0 L15,18" fill="none" stroke="gray"/></marker></defs><defs><marker orient="auto" markerHeight="18" markerWidth="18" refY="9" refX="18" id="ONLY_ONE_END"><path d="M3,0 L3,18 M9,0 L9,18" fill="none" stroke="gray"/></marker></defs><defs><marker orient="auto" markerHeight="18" markerWidth="30" refY="9" refX="0" id="ZERO_OR_ONE_START"><circle r="6" cy="9" cx="21" fill="white" stroke="gray"/><path d="M9,0 L9,18" fill="none" stroke="gray"/></marker></defs><defs><marker orient="auto" markerHeight="18" markerWidth="30" refY="9" refX="30" id="ZERO_OR_ONE_END"><circle r="6" cy="9" cx="9" fill="white" stroke="gray"/><path d="M21,0 L21,18" fill="none" stroke="gray"/></marker></defs><defs><marker orient="auto" markerHeight="36" markerWidth="45" refY="18" refX="18" id="ONE_OR_MORE_START"><path d="M0,18 Q 18,0 36,18 Q 18,36 0,18 M42,9 L42,27" fill="none" stroke="gray"/></marker></defs><defs><marker orient="auto" markerHeight="36" markerWidth="45" refY="18" refX="27" id="ONE_OR_MORE_END"><path d="M3,9 L3,27 M9,18 Q27,0 45,18 Q27,36 9,18" fill="none" stroke="gray"/></marker></defs><defs><marker orient="auto" markerHeight="36" markerWidth="57" refY="18" refX="18" id="ZERO_OR_MORE_START"><circle r="6" cy="18" cx="48" fill="white" stroke="gray"/><path d="M0,18 Q18,0 36,18 Q18,36 0,18" fill="none" stroke="gray"/></marker></defs><defs><marker orient="auto" markerHeight="36" markerWidth="57" refY="18" refX="39" id="ZERO_OR_MORE_END"><circle r="6" cy="18" cx="9" fill="white" stroke="gray"/><path d="M21,18 Q39,0 57,18 Q39,36 21,18" fill="none" stroke="gray"/></marker></defs><path style="stroke: gray; fill: none;" marker-start="url(#ZERO_OR_MORE_START)" marker-end="url(#ZERO_OR_MORE_END)" d="M299.674,88.5L294.728,96.833C289.782,105.167,279.891,121.833,277.932,138.5C275.974,155.167,281.947,171.833,284.934,180.167L287.921,188.5" class="er relationshipLine"/><path style="stroke: gray; fill: none;" marker-start="url(#ZERO_OR_MORE_START)" marker-end="url(#ZERO_OR_MORE_END)" d="M490.326,467.5L495.272,459.167C500.218,450.833,510.109,434.167,493.964,411.123C477.819,388.079,435.638,358.658,414.548,343.947L393.457,329.236" class="er relationshipLine"/><path style="stroke: gray; fill: none;" marker-start="url(#ZERO_OR_ONE_START)" marker-end="url(#ONLY_ONE_END)" d="M246.543,318.989L217.119,335.408C187.695,351.826,128.848,384.663,99.424,409.457C70,434.25,70,451,70,459.375L70,467.75" class="er relationshipLine"/><path style="stroke: gray; fill: none;" marker-start="url(#ZERO_OR_ONE_START)" marker-end="url(#ONLY_ONE_END)" d="M287.921,367.5L284.934,375.833C281.947,384.167,275.974,400.833,272.987,417.542C270,434.25,270,451,270,459.375L270,467.75" class="er relationshipLine"/><path style="stroke: gray; fill: none;" marker-start="url(#ZERO_OR_ONE_START)" marker-end="url(#ZERO_OR_ONE_END)" d="M384.158,367.5L390.131,375.833C396.105,384.167,408.053,400.833,418.972,417.5C429.891,434.167,439.782,450.833,444.728,459.167L449.674,467.5" class="er relationshipLine"/><path style="stroke: gray; fill: none;" marker-start="url(#ZERO_OR_ONE_START)" marker-end="url(#ZERO_OR_ONE_END)" d="M352.079,188.5L355.066,180.167C358.053,171.833,364.026,155.167,362.068,138.5C360.109,121.833,350.218,105.167,345.272,96.833L340.326,88.5" class="er relationshipLine"/><g transform="translate(20,467.75 )" id="entity-InvoiceType-ae7c45ca-35b3-58a6-a1a1-f0a5a7d26fe5"><rect height="68" width="100" y="0" x="0" class="er entityBox"/><text style="dominant-baseline: middle; text-anchor: middle; font-size: 12px;" transform="translate(50,12)" y="0" x="0" id="text-entity-InvoiceType-ae7c45ca-35b3-58a6-a1a1-f0a5a7d26fe5" class="er entityLabel">InvoiceType</text><rect height="22" width="50" y="24" x="0" class="er attributeBoxOdd"/><text style="dominant-baseline: middle; font-size: 10.2px;" transform="translate(5,35)" y="0" x="0" id="text-entity-InvoiceType-ae7c45ca-35b3-58a6-a1a1-f0a5a7d26fe5-attr-1-type" class="er entityLabel">INVOICE</text><rect height="22" width="50" y="24" x="50" class="er attributeBoxOdd"/><text style="dominant-baseline: middle; font-size: 10.2px;" transform="translate(55,35)" y="0" x="0" id="text-entity-InvoiceType-ae7c45ca-35b3-58a6-a1a1-f0a5a7d26fe5-attr-1-name" class="er entityLabel">INVOICE</text><rect height="22" width="50" y="46" x="0" class="er attributeBoxEven"/><text style="dominant-baseline: middle; font-size: 10.2px;" transform="translate(5,57)" y="0" x="0" id="text-entity-InvoiceType-ae7c45ca-35b3-58a6-a1a1-f0a5a7d26fe5-attr-2-type" class="er entityLabel">STORNO</text><rect height="22" width="50" y="46" x="50" class="er attributeBoxEven"/><text style="dominant-baseline: middle; font-size: 10.2px;" transform="translate(55,57)" y="0" x="0" id="text-entity-InvoiceType-ae7c45ca-35b3-58a6-a1a1-f0a5a7d26fe5-attr-2-name" class="er entityLabel">STORNO</text></g><g transform="translate(220,467.75 )" id="entity-Currency-ffe153dc-8d40-5a49-bb1e-1db6db15c126"><rect height="68" width="100" y="0" x="0" class="er entityBox"/><text style="dominant-baseline: middle; text-anchor: middle; font-size: 12px;" transform="translate(50,12)" y="0" x="0" id="text-entity-Currency-ffe153dc-8d40-5a49-bb1e-1db6db15c126" class="er entityLabel">Currency</text><rect height="22" width="50" y="24" x="0" class="er attributeBoxOdd"/><text style="dominant-baseline: middle; font-size: 10.2px;" transform="translate(5,35)" y="0" x="0" id="text-entity-Currency-ffe153dc-8d40-5a49-bb1e-1db6db15c126-attr-1-type" class="er entityLabel">EUR</text><rect height="22" width="50" y="24" x="50" class="er attributeBoxOdd"/><text style="dominant-baseline: middle; font-size: 10.2px;" transform="translate(55,35)" y="0" x="0" id="text-entity-Currency-ffe153dc-8d40-5a49-bb1e-1db6db15c126-attr-1-name" class="er entityLabel">EUR</text><rect height="22" width="50" y="46" x="0" class="er attributeBoxEven"/><text style="dominant-baseline: middle; font-size: 10.2px;" transform="translate(5,57)" y="0" x="0" id="text-entity-Currency-ffe153dc-8d40-5a49-bb1e-1db6db15c126-attr-2-type" class="er entityLabel">RON</text><rect height="22" width="50" y="46" x="50" class="er attributeBoxEven"/><text style="dominant-baseline: middle; font-size: 10.2px;" transform="translate(55,57)" y="0" x="0" id="text-entity-Currency-ffe153dc-8d40-5a49-bb1e-1db6db15c126-attr-2-name" class="er entityLabel">RON</text></g><g transform="translate(270,20 )" id="entity-Project-c2395ed5-a5fa-58df-9cbe-a2926add311c"><rect height="68.5" width="100" y="0" x="0" class="er entityBox"/><text style="dominant-baseline: middle; text-anchor: middle; font-size: 12px;" transform="translate(50,12)" y="0" x="0" id="text-entity-Project-c2395ed5-a5fa-58df-9cbe-a2926add311c" class="er entityLabel">Project</text><rect height="22.5" width="38.526041666666664" y="24" x="0" class="er attributeBoxOdd"/><text style="dominant-baseline: middle; font-size: 10.2px;" transform="translate(5,35.25)" y="0" x="0" id="text-entity-Project-c2395ed5-a5fa-58df-9cbe-a2926add311c-attr-1-type" class="er entityLabel">String</text><rect height="22.5" width="36.971354166666664" y="24" x="38.526041666666664" class="er attributeBoxOdd"/><text style="dominant-baseline: middle; font-size: 10.2px;" transform="translate(43.526041666666664,35.25)" y="0" x="0" id="text-entity-Project-c2395ed5-a5fa-58df-9cbe-a2926add311c-attr-1-name" class="er entityLabel">id</text><rect height="22.5" width="24.502604166666668" y="24" x="75.49739583333333" class="er attributeBoxOdd"/><text style="dominant-baseline: middle; font-size: 10.2px;" transform="translate(80.49739583333333,35.25)" y="0" x="0" id="text-entity-Project-c2395ed5-a5fa-58df-9cbe-a2926add311c-attr-1-comment" class="er entityLabel">🗝️</text><rect height="22" width="38.526041666666664" y="46.5" x="0" class="er attributeBoxEven"/><text style="dominant-baseline: middle; font-size: 10.2px;" transform="translate(5,57.5)" y="0" x="0" id="text-entity-Project-c2395ed5-a5fa-58df-9cbe-a2926add311c-attr-2-type" class="er entityLabel">String</text><rect height="22" width="36.971354166666664" y="46.5" x="38.526041666666664" class="er attributeBoxEven"/><text style="dominant-baseline: middle; font-size: 10.2px;" transform="translate(43.526041666666664,57.5)" y="0" x="0" id="text-entity-Project-c2395ed5-a5fa-58df-9cbe-a2926add311c-attr-2-name" class="er entityLabel">name</text><rect height="22" width="24.502604166666668" y="46.5" x="75.49739583333333" class="er attributeBoxEven"/><text style="dominant-baseline: middle; font-size: 10.2px;" transform="translate(80.49739583333333,57.5)" y="0" x="0" id="text-entity-Project-c2395ed5-a5fa-58df-9cbe-a2926add311c-attr-2-comment" class="er entityLabel"/></g><g transform="translate(420,467.5 )" id="entity-Customer-7db3a251-ee0f-5d85-b53f-42db636cc6f9"><rect height="68.5" width="100" y="0" x="0" class="er entityBox"/><text style="dominant-baseline: middle; text-anchor: middle; font-size: 12px;" transform="translate(50,12)" y="0" x="0" id="text-entity-Customer-7db3a251-ee0f-5d85-b53f-42db636cc6f9" class="er entityLabel">Customer</text><rect height="22.5" width="38.526041666666664" y="24" x="0" class="er attributeBoxOdd"/><text style="dominant-baseline: middle; font-size: 10.2px;" transform="translate(5,35.25)" y="0" x="0" id="text-entity-Customer-7db3a251-ee0f-5d85-b53f-42db636cc6f9-attr-1-type" class="er entityLabel">String</text><rect height="22.5" width="36.971354166666664" y="24" x="38.526041666666664" class="er attributeBoxOdd"/><text style="dominant-baseline: middle; font-size: 10.2px;" transform="translate(43.526041666666664,35.25)" y="0" x="0" id="text-entity-Customer-7db3a251-ee0f-5d85-b53f-42db636cc6f9-attr-1-name" class="er entityLabel">id</text><rect height="22.5" width="24.502604166666668" y="24" x="75.49739583333333" class="er attributeBoxOdd"/><text style="dominant-baseline: middle; font-size: 10.2px;" transform="translate(80.49739583333333,35.25)" y="0" x="0" id="text-entity-Customer-7db3a251-ee0f-5d85-b53f-42db636cc6f9-attr-1-comment" class="er entityLabel">🗝️</text><rect height="22" width="38.526041666666664" y="46.5" x="0" class="er attributeBoxEven"/><text style="dominant-baseline: middle; font-size: 10.2px;" transform="translate(5,57.5)" y="0" x="0" id="text-entity-Customer-7db3a251-ee0f-5d85-b53f-42db636cc6f9-attr-2-type" class="er entityLabel">String</text><rect height="22" width="36.971354166666664" y="46.5" x="38.526041666666664" class="er attributeBoxEven"/><text style="dominant-baseline: middle; font-size: 10.2px;" transform="translate(43.526041666666664,57.5)" y="0" x="0" id="text-entity-Customer-7db3a251-ee0f-5d85-b53f-42db636cc6f9-attr-2-name" class="er entityLabel">name</text><rect height="22" width="24.502604166666668" y="46.5" x="75.49739583333333" class="er attributeBoxEven"/><text style="dominant-baseline: middle; font-size: 10.2px;" transform="translate(80.49739583333333,57.5)" y="0" x="0" id="text-entity-Customer-7db3a251-ee0f-5d85-b53f-42db636cc6f9-attr-2-comment" class="er entityLabel"/></g><g transform="translate(246.54296875,188.5 )" id="entity-Invoice-d74bdb79-28bd-5529-bee8-09cc57ef8182"><rect height="179" width="146.9140625" y="0" x="0" class="er entityBox"/><text style="dominant-baseline: middle; text-anchor: middle; font-size: 12px;" transform="translate(73.45703125,12)" y="0" x="0" id="text-entity-Invoice-d74bdb79-28bd-5529-bee8-09cc57ef8182" class="er entityLabel">Invoice</text><rect height="22.5" width="63.4296875" y="24" x="0" class="er attributeBoxOdd"/><text style="dominant-baseline: middle; font-size: 10.2px;" transform="translate(5,35.25)" y="0" x="0" id="text-entity-Invoice-d74bdb79-28bd-5529-bee8-09cc57ef8182-attr-1-type" class="er entityLabel">Int</text><rect height="22.5" width="60.984375" y="24" x="63.4296875" class="er attributeBoxOdd"/><text style="dominant-baseline: middle; font-size: 10.2px;" transform="translate(68.4296875,35.25)" y="0" x="0" id="text-entity-Invoice-d74bdb79-28bd-5529-bee8-09cc57ef8182-attr-1-name" class="er entityLabel">id</text><rect height="22.5" width="22.5" y="24" x="124.4140625" class="er attributeBoxOdd"/><text style="dominant-baseline: middle; font-size: 10.2px;" transform="translate(129.4140625,35.25)" y="0" x="0" id="text-entity-Invoice-d74bdb79-28bd-5529-bee8-09cc57ef8182-attr-1-comment" class="er entityLabel">🗝️</text><rect height="22" width="63.4296875" y="46.5" x="0" class="er attributeBoxEven"/><text style="dominant-baseline: middle; font-size: 10.2px;" transform="translate(5,57.5)" y="0" x="0" id="text-entity-Invoice-d74bdb79-28bd-5529-bee8-09cc57ef8182-attr-2-type" class="er entityLabel">InvoiceType</text><rect height="22" width="60.984375" y="46.5" x="63.4296875" class="er attributeBoxEven"/><text style="dominant-baseline: middle; font-size: 10.2px;" transform="translate(68.4296875,57.5)" y="0" x="0" id="text-entity-Invoice-d74bdb79-28bd-5529-bee8-09cc57ef8182-attr-2-name" class="er entityLabel">type</text><rect height="22" width="22.5" y="46.5" x="124.4140625" class="er attributeBoxEven"/><text style="dominant-baseline: middle; font-size: 10.2px;" transform="translate(129.4140625,57.5)" y="0" x="0" id="text-entity-Invoice-d74bdb79-28bd-5529-bee8-09cc57ef8182-attr-2-comment" class="er entityLabel"/><rect height="22" width="63.4296875" y="68.5" x="0" class="er attributeBoxOdd"/><text style="dominant-baseline: middle; font-size: 10.2px;" transform="translate(5,79.5)" y="0" x="0" id="text-entity-Invoice-d74bdb79-28bd-5529-bee8-09cc57ef8182-attr-3-type" class="er entityLabel">Currency</text><rect height="22" width="60.984375" y="68.5" x="63.4296875" class="er attributeBoxOdd"/><text style="dominant-baseline: middle; font-size: 10.2px;" transform="translate(68.4296875,79.5)" y="0" x="0" id="text-entity-Invoice-d74bdb79-28bd-5529-bee8-09cc57ef8182-attr-3-name" class="er entityLabel">currency</text><rect height="22" width="22.5" y="68.5" x="124.4140625" class="er attributeBoxOdd"/><text style="dominant-baseline: middle; font-size: 10.2px;" transform="translate(129.4140625,79.5)" y="0" x="0" id="text-entity-Invoice-d74bdb79-28bd-5529-bee8-09cc57ef8182-attr-3-comment" class="er entityLabel"/><rect height="22" width="63.4296875" y="90.5" x="0" class="er attributeBoxEven"/><text style="dominant-baseline: middle; font-size: 10.2px;" transform="translate(5,101.5)" y="0" x="0" id="text-entity-Invoice-d74bdb79-28bd-5529-bee8-09cc57ef8182-attr-4-type" class="er entityLabel">Float</text><rect height="22" width="60.984375" y="90.5" x="63.4296875" class="er attributeBoxEven"/><text style="dominant-baseline: middle; font-size: 10.2px;" transform="translate(68.4296875,101.5)" y="0" x="0" id="text-entity-Invoice-d74bdb79-28bd-5529-bee8-09cc57ef8182-attr-4-name" class="er entityLabel">amount</text><rect height="22" width="22.5" y="90.5" x="124.4140625" class="er attributeBoxEven"/><text style="dominant-baseline: middle; font-size: 10.2px;" transform="translate(129.4140625,101.5)" y="0" x="0" id="text-entity-Invoice-d74bdb79-28bd-5529-bee8-09cc57ef8182-attr-4-comment" class="er entityLabel"/><rect height="22" width="63.4296875" y="112.5" x="0" class="er attributeBoxOdd"/><text style="dominant-baseline: middle; font-size: 10.2px;" transform="translate(5,123.5)" y="0" x="0" id="text-entity-Invoice-d74bdb79-28bd-5529-bee8-09cc57ef8182-attr-5-type" class="er entityLabel">Boolean</text><rect height="22" width="60.984375" y="112.5" x="63.4296875" class="er attributeBoxOdd"/><text style="dominant-baseline: middle; font-size: 10.2px;" transform="translate(68.4296875,123.5)" y="0" x="0" id="text-entity-Invoice-d74bdb79-28bd-5529-bee8-09cc57ef8182-attr-5-name" class="er entityLabel">isPaid</text><rect height="22" width="22.5" y="112.5" x="124.4140625" class="er attributeBoxOdd"/><text style="dominant-baseline: middle; font-size: 10.2px;" transform="translate(129.4140625,123.5)" y="0" x="0" id="text-entity-Invoice-d74bdb79-28bd-5529-bee8-09cc57ef8182-attr-5-comment" class="er entityLabel"/><rect height="22" width="63.4296875" y="134.5" x="0" class="er attributeBoxEven"/><text style="dominant-baseline: middle; font-size: 10.2px;" transform="translate(5,145.5)" y="0" x="0" id="text-entity-Invoice-d74bdb79-28bd-5529-bee8-09cc57ef8182-attr-6-type" class="er entityLabel">DateTime</text><rect height="22" width="60.984375" y="134.5" x="63.4296875" class="er attributeBoxEven"/><text style="dominant-baseline: middle; font-size: 10.2px;" transform="translate(68.4296875,145.5)" y="0" x="0" id="text-entity-Invoice-d74bdb79-28bd-5529-bee8-09cc57ef8182-attr-6-name" class="er entityLabel">dueDate</text><rect height="22" width="22.5" y="134.5" x="124.4140625" class="er attributeBoxEven"/><text style="dominant-baseline: middle; font-size: 10.2px;" transform="translate(129.4140625,145.5)" y="0" x="0" id="text-entity-Invoice-d74bdb79-28bd-5529-bee8-09cc57ef8182-attr-6-comment" class="er entityLabel"/><rect height="22.5" width="63.4296875" y="156.5" x="0" class="er attributeBoxOdd"/><text style="dominant-baseline: middle; font-size: 10.2px;" transform="translate(5,167.75)" y="0" x="0" id="text-entity-Invoice-d74bdb79-28bd-5529-bee8-09cc57ef8182-attr-7-type" class="er entityLabel">String</text><rect height="22.5" width="60.984375" y="156.5" x="63.4296875" class="er attributeBoxOdd"/><text style="dominant-baseline: middle; font-size: 10.2px;" transform="translate(68.4296875,167.75)" y="0" x="0" id="text-entity-Invoice-d74bdb79-28bd-5529-bee8-09cc57ef8182-attr-7-name" class="er entityLabel">description</text><rect height="22.5" width="22.5" y="156.5" x="124.4140625" class="er attributeBoxOdd"/><text style="dominant-baseline: middle; font-size: 10.2px;" transform="translate(129.4140625,167.75)" y="0" x="0" id="text-entity-Invoice-d74bdb79-28bd-5529-bee8-09cc57ef8182-attr-7-comment" class="er entityLabel">❓</text></g><rect height="14" width="43.0625" y="129.78985595703125" x="256.62921142578125" class="er relationshipLabelBox"/><text style="text-anchor: middle; dominant-baseline: middle; font-size: 12px;" y="136.78985595703125" x="278.16046142578125" id="rel1" class="er relationshipLabel">invoices</text><rect height="14" width="43.0625" y="379.1969299316406" x="448.7435302734375" class="er relationshipLabelBox"/><text style="text-anchor: middle; dominant-baseline: middle; font-size: 12px;" y="386.1969299316406" x="470.2747802734375" id="rel2" class="er relationshipLabel">invoices</text><rect height="14" width="57.9375" y="372.3191833496094" x="113.09071350097656" class="er relationshipLabelBox"/><text style="text-anchor: middle; dominant-baseline: middle; font-size: 12px;" y="379.3191833496094" x="142.05946350097656" id="rel3" class="er relationshipLabel">enum:type</text><rect height="14" width="80.8125" y="409.59820556640625" x="232.75299072265625" class="er relationshipLabelBox"/><text style="text-anchor: middle; dominant-baseline: middle; font-size: 12px;" y="416.59820556640625" x="273.15924072265625" id="rel4" class="er relationshipLabel">enum:currency</text><rect height="14" width="50.9609375" y="409.5589599609375" x="392.87322998046875" class="er relationshipLabelBox"/><text style="text-anchor: middle; dominant-baseline: middle; font-size: 12px;" y="416.5589599609375" x="418.35369873046875" id="rel5" class="er relationshipLabel">Customer</text><rect height="14" width="38.8828125" y="129.78988647460938" x="342.3979187011719" class="er relationshipLabelBox"/><text style="text-anchor: middle; dominant-baseline: middle; font-size: 12px;" y="136.78988647460938" x="361.8393249511719" id="rel6" class="er relationshipLabel">Project</text></svg>